<svg width="64" height="64" viewBox="0 0 64 64" xmlns="http://www.w3.org/2000/svg">
  <!-- Byakugan - Pale lavender/white with prominent veins -->
  <circle cx="32" cy="32" r="28" fill="#F5F3FF"/>

  <!-- Vein network radiating from pupil -->
  <g stroke="#BDB2C7" stroke-width="1" opacity="0.7" fill="none">
    <!-- Cardinal directions -->
    <line x1="32" y1="4" x2="32" y2="25"/>
    <line x1="32" y1="39" x2="32" y2="60"/>
    <line x1="4" y1="32" x2="25" y2="32"/>
    <line x1="39" y1="32" x2="60" y2="32"/>

    <!-- Diagonals -->
    <line x1="9" y1="9" x2="24" y2="24"/>
    <line x1="40" y1="40" x2="55" y2="55"/>
    <line x1="55" y1="9" x2="40" y2="24"/>
    <line x1="24" y1="40" x2="9" y2="55"/>

    <!-- Additional veins for detail -->
    <line x1="16" y1="7" x2="27" y2="27"/>
    <line x1="48" y1="7" x2="37" y2="27"/>
    <line x1="7" y1="16" x2="27" y2="27"/>
    <line x1="7" y1="48" x2="27" y2="37"/>
    <line x1="57" y1="16" x2="37" y2="27"/>
    <line x1="57" y1="48" x2="37" y2="37"/>
    <line x1="16" y1="57" x2="27" y2="37"/>
    <line x1="48" y1="57" x2="37" y2="37"/>
  </g>

  <!-- Pale lavender pupil -->
  <circle cx="32" cy="32" r="6" fill="#D4C5E0"/>
  <circle cx="30" cy="29" r="1.5" fill="#FFFFFF" opacity="0.7"/>
</svg>
