<svg width="64" height="64" viewBox="0 0 64 64" xmlns="http://www.w3.org/2000/svg">
  <!-- Jōgan - Light blue/cyan with electric pattern and four-pointed star -->
  <circle cx="32" cy="32" r="28" fill="#B8E6F5"/>

  <!-- Four-pointed star pattern (distinctive Jōgan feature) -->
  <path d="M32,6 L34,28 L56,30 L34,32 L32,54 L30,32 L8,30 L30,28 Z" fill="#4DB8E8" opacity="0.6"/>

  <!-- Electric/lightning pattern -->
  <g stroke="#2A9FD6" stroke-width="1.5" fill="none" opacity="0.8">
    <path d="M32,10 L30,18 L34,18 L32,26"/>
    <path d="M50,24 L42,26 L42,30 L36,28"/>
    <path d="M50,40 L42,38 L42,34 L36,36"/>
    <path d="M32,54 L34,46 L30,46 L32,38"/>
    <path d="M14,40 L22,38 L22,34 L28,36"/>
    <path d="M14,24 L22,26 L22,30 L28,28"/>
  </g>

  <!-- Cyan pupil with white sclera appearance -->
  <circle cx="32" cy="32" r="8" fill="#000000"/>
  <circle cx="30" cy="29" r="2.5" fill="#87CEEB" opacity="0.9"/>
</svg>
